<mxfile host="app.diagrams.net" modified="2023-06-28T17:40:10.079Z" agent="Mozilla/5.0 (Macintosh; Intel Mac OS X 10_15_7) AppleWebKit/537.36 (KHTML, like Gecko) Chrome/114.0.0.0 Safari/537.36" etag="sALVA_4B7rTrMS_Kou2B" version="21.5.1" type="device">
  <diagram name="Page-1" id="0783ab3e-0a74-02c8-0abd-f7b4e66b4bec">
    <mxGraphModel dx="1063" dy="544" grid="1" gridSize="10" guides="1" tooltips="1" connect="1" arrows="1" fold="1" page="1" pageScale="1" pageWidth="850" pageHeight="1100" background="none" math="0" shadow="0">
      <root>
        <mxCell id="0" />
        <mxCell id="1" parent="0" />
        <mxCell id="RoVOGvNV2QU-nWZsqdHu-56" value="Brak połączenie z internetem&amp;nbsp;" style="rounded=1;whiteSpace=wrap;html=1;shadow=0;comic=0;labelBackgroundColor=none;strokeWidth=1;fontFamily=Verdana;fontSize=12;align=center;arcSize=50;" vertex="1" parent="1">
          <mxGeometry x="140" y="300" width="130" height="40" as="geometry" />
        </mxCell>
        <mxCell id="RoVOGvNV2QU-nWZsqdHu-57" value="" style="endArrow=classic;html=1;rounded=0;exitX=0.5;exitY=1;exitDx=0;exitDy=0;" edge="1" parent="1" source="RoVOGvNV2QU-nWZsqdHu-56">
          <mxGeometry width="50" height="50" relative="1" as="geometry">
            <mxPoint x="160" y="500" as="sourcePoint" />
            <mxPoint x="205" y="380" as="targetPoint" />
          </mxGeometry>
        </mxCell>
        <mxCell id="RoVOGvNV2QU-nWZsqdHu-58" value="Zresetuj moduł Wi-Fi" style="rounded=1;whiteSpace=wrap;html=1;shadow=0;comic=0;labelBackgroundColor=none;strokeWidth=1;fontFamily=Verdana;fontSize=12;align=center;arcSize=50;" vertex="1" parent="1">
          <mxGeometry x="110" y="380" width="150" height="40" as="geometry" />
        </mxCell>
        <mxCell id="RoVOGvNV2QU-nWZsqdHu-59" value="Połączenie wznowione" style="rounded=1;whiteSpace=wrap;html=1;shadow=0;comic=0;labelBackgroundColor=none;strokeWidth=1;fontFamily=Verdana;fontSize=12;align=center;arcSize=50;" vertex="1" parent="1">
          <mxGeometry x="42.5" y="470" width="110" height="40" as="geometry" />
        </mxCell>
        <mxCell id="RoVOGvNV2QU-nWZsqdHu-60" value="Brak połączenia" style="rounded=1;whiteSpace=wrap;html=1;shadow=0;comic=0;labelBackgroundColor=none;strokeWidth=1;fontFamily=Verdana;fontSize=12;align=center;arcSize=50;" vertex="1" parent="1">
          <mxGeometry x="170" y="470" width="110" height="40" as="geometry" />
        </mxCell>
        <mxCell id="RoVOGvNV2QU-nWZsqdHu-61" value="" style="whiteSpace=wrap;html=1;rounded=0;shadow=0;comic=0;labelBackgroundColor=none;strokeWidth=1;fillColor=#000000;fontFamily=Verdana;fontSize=12;align=center;rotation=0;" vertex="1" parent="1">
          <mxGeometry x="113" y="440" width="147" height="10" as="geometry" />
        </mxCell>
        <mxCell id="RoVOGvNV2QU-nWZsqdHu-62" value="" style="endArrow=classic;html=1;rounded=0;exitX=0.5;exitY=1;exitDx=0;exitDy=0;" edge="1" parent="1" source="RoVOGvNV2QU-nWZsqdHu-58">
          <mxGeometry width="50" height="50" relative="1" as="geometry">
            <mxPoint x="110" y="600" as="sourcePoint" />
            <mxPoint x="185" y="440" as="targetPoint" />
          </mxGeometry>
        </mxCell>
        <mxCell id="RoVOGvNV2QU-nWZsqdHu-63" value="" style="endArrow=classic;html=1;rounded=0;exitX=0;exitY=1;exitDx=0;exitDy=0;entryX=0.5;entryY=0;entryDx=0;entryDy=0;" edge="1" parent="1" source="RoVOGvNV2QU-nWZsqdHu-61" target="RoVOGvNV2QU-nWZsqdHu-59">
          <mxGeometry width="50" height="50" relative="1" as="geometry">
            <mxPoint x="160" y="590" as="sourcePoint" />
            <mxPoint x="210" y="540" as="targetPoint" />
          </mxGeometry>
        </mxCell>
        <mxCell id="RoVOGvNV2QU-nWZsqdHu-64" value="" style="endArrow=classic;html=1;rounded=0;exitX=0.75;exitY=1;exitDx=0;exitDy=0;entryX=0.75;entryY=0;entryDx=0;entryDy=0;" edge="1" parent="1" source="RoVOGvNV2QU-nWZsqdHu-61" target="RoVOGvNV2QU-nWZsqdHu-60">
          <mxGeometry width="50" height="50" relative="1" as="geometry">
            <mxPoint x="170" y="560" as="sourcePoint" />
            <mxPoint x="220" y="510" as="targetPoint" />
          </mxGeometry>
        </mxCell>
        <mxCell id="RoVOGvNV2QU-nWZsqdHu-65" value="" style="ellipse;whiteSpace=wrap;html=1;rounded=0;shadow=0;comic=0;labelBackgroundColor=none;strokeWidth=1;fillColor=#000000;fontFamily=Verdana;fontSize=12;align=center;" vertex="1" parent="1">
          <mxGeometry x="395" y="80" width="40" height="40" as="geometry" />
        </mxCell>
        <mxCell id="RoVOGvNV2QU-nWZsqdHu-66" value="" style="endArrow=classic;html=1;rounded=0;exitX=0.5;exitY=1;exitDx=0;exitDy=0;" edge="1" parent="1" source="RoVOGvNV2QU-nWZsqdHu-65">
          <mxGeometry width="50" height="50" relative="1" as="geometry">
            <mxPoint x="430" y="220" as="sourcePoint" />
            <mxPoint x="415" y="160" as="targetPoint" />
          </mxGeometry>
        </mxCell>
        <mxCell id="RoVOGvNV2QU-nWZsqdHu-67" value="Sprawdzenie raportu, aby znaleźć przyczynę przejścia do stanu offline" style="rounded=1;whiteSpace=wrap;html=1;shadow=0;comic=0;labelBackgroundColor=none;strokeWidth=1;fontFamily=Verdana;fontSize=12;align=center;arcSize=50;" vertex="1" parent="1">
          <mxGeometry x="310" y="160" width="200" height="50" as="geometry" />
        </mxCell>
        <mxCell id="RoVOGvNV2QU-nWZsqdHu-68" value="" style="endArrow=classic;html=1;rounded=0;exitX=0.5;exitY=1;exitDx=0;exitDy=0;" edge="1" parent="1" source="RoVOGvNV2QU-nWZsqdHu-67">
          <mxGeometry width="50" height="50" relative="1" as="geometry">
            <mxPoint x="430" y="300" as="sourcePoint" />
            <mxPoint x="410" y="240" as="targetPoint" />
          </mxGeometry>
        </mxCell>
        <mxCell id="RoVOGvNV2QU-nWZsqdHu-69" value="" style="whiteSpace=wrap;html=1;rounded=0;shadow=0;comic=0;labelBackgroundColor=none;strokeWidth=1;fillColor=#000000;fontFamily=Verdana;fontSize=12;align=center;rotation=0;" vertex="1" parent="1">
          <mxGeometry x="341.5" y="240" width="147" height="10" as="geometry" />
        </mxCell>
        <mxCell id="RoVOGvNV2QU-nWZsqdHu-70" value="" style="endArrow=classic;html=1;rounded=0;exitX=0.25;exitY=1;exitDx=0;exitDy=0;entryX=0.5;entryY=0;entryDx=0;entryDy=0;" edge="1" parent="1" source="RoVOGvNV2QU-nWZsqdHu-69" target="RoVOGvNV2QU-nWZsqdHu-71">
          <mxGeometry width="50" height="50" relative="1" as="geometry">
            <mxPoint x="370" y="280" as="sourcePoint" />
            <mxPoint x="400" y="270" as="targetPoint" />
            <Array as="points">
              <mxPoint x="355" y="280" />
            </Array>
          </mxGeometry>
        </mxCell>
        <mxCell id="RoVOGvNV2QU-nWZsqdHu-71" value="Problem z zasilaniem" style="rounded=1;whiteSpace=wrap;html=1;shadow=0;comic=0;labelBackgroundColor=none;strokeWidth=1;fontFamily=Verdana;fontSize=12;align=center;arcSize=50;" vertex="1" parent="1">
          <mxGeometry x="300" y="300" width="110" height="40" as="geometry" />
        </mxCell>
        <mxCell id="RoVOGvNV2QU-nWZsqdHu-72" value="Awaria czujników" style="rounded=1;whiteSpace=wrap;html=1;shadow=0;comic=0;labelBackgroundColor=none;strokeWidth=1;fontFamily=Verdana;fontSize=12;align=center;arcSize=50;" vertex="1" parent="1">
          <mxGeometry x="425" y="300" width="128" height="40" as="geometry" />
        </mxCell>
        <mxCell id="RoVOGvNV2QU-nWZsqdHu-73" value="" style="endArrow=classic;html=1;rounded=0;exitX=0.5;exitY=1;exitDx=0;exitDy=0;" edge="1" parent="1" source="RoVOGvNV2QU-nWZsqdHu-71">
          <mxGeometry width="50" height="50" relative="1" as="geometry">
            <mxPoint x="350" y="470" as="sourcePoint" />
            <mxPoint x="355" y="370" as="targetPoint" />
          </mxGeometry>
        </mxCell>
        <mxCell id="RoVOGvNV2QU-nWZsqdHu-74" value="Zresetuj układ zarządzania zasilaniem" style="rounded=1;whiteSpace=wrap;html=1;shadow=0;comic=0;labelBackgroundColor=none;strokeWidth=1;fontFamily=Verdana;fontSize=12;align=center;arcSize=50;" vertex="1" parent="1">
          <mxGeometry x="290" y="370" width="130" height="50" as="geometry" />
        </mxCell>
        <mxCell id="RoVOGvNV2QU-nWZsqdHu-75" value="Pozostaw system w uśpieniu, do momentu serwisowania" style="rounded=1;whiteSpace=wrap;html=1;shadow=0;comic=0;labelBackgroundColor=none;strokeWidth=1;fontFamily=Verdana;fontSize=12;align=center;arcSize=50;" vertex="1" parent="1">
          <mxGeometry x="455" y="710" width="130" height="85" as="geometry" />
        </mxCell>
        <mxCell id="RoVOGvNV2QU-nWZsqdHu-76" value="" style="whiteSpace=wrap;html=1;rounded=0;shadow=0;comic=0;labelBackgroundColor=none;strokeWidth=1;fillColor=#000000;fontFamily=Verdana;fontSize=12;align=center;rotation=0;" vertex="1" parent="1">
          <mxGeometry x="305" y="440" width="105" height="10" as="geometry" />
        </mxCell>
        <mxCell id="RoVOGvNV2QU-nWZsqdHu-77" value="" style="endArrow=classic;html=1;rounded=0;exitX=0.25;exitY=1;exitDx=0;exitDy=0;" edge="1" parent="1" source="RoVOGvNV2QU-nWZsqdHu-76">
          <mxGeometry width="50" height="50" relative="1" as="geometry">
            <mxPoint x="352" y="590" as="sourcePoint" />
            <mxPoint x="330" y="480" as="targetPoint" />
          </mxGeometry>
        </mxCell>
        <mxCell id="RoVOGvNV2QU-nWZsqdHu-78" value="" style="endArrow=classic;html=1;rounded=0;" edge="1" parent="1">
          <mxGeometry width="50" height="50" relative="1" as="geometry">
            <mxPoint x="370" y="445" as="sourcePoint" />
            <mxPoint x="420" y="480" as="targetPoint" />
          </mxGeometry>
        </mxCell>
        <mxCell id="RoVOGvNV2QU-nWZsqdHu-79" value="" style="endArrow=classic;html=1;rounded=0;exitX=0.5;exitY=1;exitDx=0;exitDy=0;entryX=0.5;entryY=0;entryDx=0;entryDy=0;" edge="1" parent="1" source="RoVOGvNV2QU-nWZsqdHu-74" target="RoVOGvNV2QU-nWZsqdHu-76">
          <mxGeometry width="50" height="50" relative="1" as="geometry">
            <mxPoint x="410" y="560" as="sourcePoint" />
            <mxPoint x="460" y="510" as="targetPoint" />
          </mxGeometry>
        </mxCell>
        <mxCell id="RoVOGvNV2QU-nWZsqdHu-80" value="Odzyskanie zasilania" style="rounded=1;whiteSpace=wrap;html=1;shadow=0;comic=0;labelBackgroundColor=none;strokeWidth=1;fontFamily=Verdana;fontSize=12;align=center;arcSize=50;" vertex="1" parent="1">
          <mxGeometry x="290" y="480" width="100" height="30" as="geometry" />
        </mxCell>
        <mxCell id="RoVOGvNV2QU-nWZsqdHu-81" value="Brak zasilania" style="rounded=1;whiteSpace=wrap;html=1;shadow=0;comic=0;labelBackgroundColor=none;strokeWidth=1;fontFamily=Verdana;fontSize=12;align=center;arcSize=50;" vertex="1" parent="1">
          <mxGeometry x="395" y="480" width="95" height="30" as="geometry" />
        </mxCell>
        <mxCell id="RoVOGvNV2QU-nWZsqdHu-82" value="" style="endArrow=classic;html=1;rounded=0;exitX=0.5;exitY=1;exitDx=0;exitDy=0;entryX=0.367;entryY=0.005;entryDx=0;entryDy=0;entryPerimeter=0;" edge="1" parent="1" source="RoVOGvNV2QU-nWZsqdHu-81" target="RoVOGvNV2QU-nWZsqdHu-75">
          <mxGeometry width="50" height="50" relative="1" as="geometry">
            <mxPoint x="420" y="610" as="sourcePoint" />
            <mxPoint x="470" y="560" as="targetPoint" />
            <Array as="points">
              <mxPoint x="443" y="610" />
              <mxPoint x="500" y="610" />
            </Array>
          </mxGeometry>
        </mxCell>
        <mxCell id="RoVOGvNV2QU-nWZsqdHu-83" value="" style="endArrow=classic;html=1;rounded=0;exitX=0.75;exitY=1;exitDx=0;exitDy=0;entryX=0.5;entryY=0;entryDx=0;entryDy=0;" edge="1" parent="1" source="RoVOGvNV2QU-nWZsqdHu-69" target="RoVOGvNV2QU-nWZsqdHu-72">
          <mxGeometry width="50" height="50" relative="1" as="geometry">
            <mxPoint x="610" y="440" as="sourcePoint" />
            <mxPoint x="660" y="390" as="targetPoint" />
            <Array as="points">
              <mxPoint x="489" y="280" />
            </Array>
          </mxGeometry>
        </mxCell>
        <mxCell id="RoVOGvNV2QU-nWZsqdHu-84" value="" style="endArrow=classic;html=1;rounded=0;exitX=0.5;exitY=1;exitDx=0;exitDy=0;" edge="1" parent="1" source="RoVOGvNV2QU-nWZsqdHu-72">
          <mxGeometry width="50" height="50" relative="1" as="geometry">
            <mxPoint x="470" y="450" as="sourcePoint" />
            <mxPoint x="490" y="370" as="targetPoint" />
          </mxGeometry>
        </mxCell>
        <mxCell id="RoVOGvNV2QU-nWZsqdHu-85" value="Zresetuj czujniki" style="rounded=1;whiteSpace=wrap;html=1;shadow=0;comic=0;labelBackgroundColor=none;strokeWidth=1;fontFamily=Verdana;fontSize=12;align=center;arcSize=50;" vertex="1" parent="1">
          <mxGeometry x="435" y="370" width="105" height="40" as="geometry" />
        </mxCell>
        <mxCell id="RoVOGvNV2QU-nWZsqdHu-86" value="" style="whiteSpace=wrap;html=1;rounded=0;shadow=0;comic=0;labelBackgroundColor=none;strokeWidth=1;fillColor=#000000;fontFamily=Verdana;fontSize=12;align=center;rotation=0;" vertex="1" parent="1">
          <mxGeometry x="480" y="440" width="105" height="10" as="geometry" />
        </mxCell>
        <mxCell id="RoVOGvNV2QU-nWZsqdHu-87" value="" style="endArrow=classic;html=1;rounded=0;exitX=0.5;exitY=1;exitDx=0;exitDy=0;entryX=0.5;entryY=0;entryDx=0;entryDy=0;" edge="1" parent="1" source="RoVOGvNV2QU-nWZsqdHu-85" target="RoVOGvNV2QU-nWZsqdHu-86">
          <mxGeometry width="50" height="50" relative="1" as="geometry">
            <mxPoint x="480" y="520" as="sourcePoint" />
            <mxPoint x="530" y="470" as="targetPoint" />
            <Array as="points">
              <mxPoint x="488" y="420" />
              <mxPoint x="533" y="420" />
            </Array>
          </mxGeometry>
        </mxCell>
        <mxCell id="RoVOGvNV2QU-nWZsqdHu-88" value="Brak informacji zwrotnej z czujników" style="rounded=1;whiteSpace=wrap;html=1;shadow=0;comic=0;labelBackgroundColor=none;strokeWidth=1;fontFamily=Verdana;fontSize=12;align=center;arcSize=50;" vertex="1" parent="1">
          <mxGeometry x="490" y="480" width="100" height="70" as="geometry" />
        </mxCell>
        <mxCell id="RoVOGvNV2QU-nWZsqdHu-89" value="" style="endArrow=classic;html=1;rounded=0;exitX=0.5;exitY=1;exitDx=0;exitDy=0;" edge="1" parent="1" source="RoVOGvNV2QU-nWZsqdHu-86" target="RoVOGvNV2QU-nWZsqdHu-88">
          <mxGeometry width="50" height="50" relative="1" as="geometry">
            <mxPoint x="510" y="650" as="sourcePoint" />
            <mxPoint x="560" y="600" as="targetPoint" />
          </mxGeometry>
        </mxCell>
        <mxCell id="RoVOGvNV2QU-nWZsqdHu-90" value="Rozpocznij inicjalizację systemu&amp;nbsp;" style="rounded=1;whiteSpace=wrap;html=1;shadow=0;comic=0;labelBackgroundColor=none;strokeWidth=1;fontFamily=Verdana;fontSize=12;align=center;arcSize=50;" vertex="1" parent="1">
          <mxGeometry x="265" y="710" width="142.5" height="85" as="geometry" />
        </mxCell>
        <mxCell id="RoVOGvNV2QU-nWZsqdHu-91" value="" style="endArrow=classic;html=1;rounded=0;exitX=0.5;exitY=1;exitDx=0;exitDy=0;entryX=0.56;entryY=-0.03;entryDx=0;entryDy=0;entryPerimeter=0;" edge="1" parent="1" source="RoVOGvNV2QU-nWZsqdHu-80" target="RoVOGvNV2QU-nWZsqdHu-90">
          <mxGeometry width="50" height="50" relative="1" as="geometry">
            <mxPoint x="340" y="520" as="sourcePoint" />
            <mxPoint x="330" y="710" as="targetPoint" />
            <Array as="points" />
          </mxGeometry>
        </mxCell>
        <mxCell id="RoVOGvNV2QU-nWZsqdHu-92" value="" style="endArrow=classic;html=1;rounded=0;exitX=0.5;exitY=1;exitDx=0;exitDy=0;entryX=0.667;entryY=-0.018;entryDx=0;entryDy=0;entryPerimeter=0;" edge="1" parent="1" source="RoVOGvNV2QU-nWZsqdHu-88" target="RoVOGvNV2QU-nWZsqdHu-75">
          <mxGeometry width="50" height="50" relative="1" as="geometry">
            <mxPoint x="620" y="710" as="sourcePoint" />
            <mxPoint x="670" y="660" as="targetPoint" />
          </mxGeometry>
        </mxCell>
        <mxCell id="RoVOGvNV2QU-nWZsqdHu-93" value="Awaria jednostki głównej" style="rounded=1;whiteSpace=wrap;html=1;shadow=0;comic=0;labelBackgroundColor=none;strokeWidth=1;fontFamily=Verdana;fontSize=12;align=center;arcSize=50;" vertex="1" parent="1">
          <mxGeometry x="607" y="300" width="153" height="40" as="geometry" />
        </mxCell>
        <mxCell id="RoVOGvNV2QU-nWZsqdHu-94" value="" style="endArrow=classic;html=1;rounded=0;entryX=0.5;entryY=0;entryDx=0;entryDy=0;" edge="1" parent="1" target="RoVOGvNV2QU-nWZsqdHu-93">
          <mxGeometry width="50" height="50" relative="1" as="geometry">
            <mxPoint x="490" y="250" as="sourcePoint" />
            <mxPoint x="677" y="240" as="targetPoint" />
            <Array as="points">
              <mxPoint x="684" y="250" />
            </Array>
          </mxGeometry>
        </mxCell>
        <mxCell id="RoVOGvNV2QU-nWZsqdHu-95" value="Czujniki odpowiadają na sygnał&amp;nbsp;" style="rounded=1;whiteSpace=wrap;html=1;shadow=0;comic=0;labelBackgroundColor=none;strokeWidth=1;fontFamily=Verdana;fontSize=12;align=center;arcSize=50;" vertex="1" parent="1">
          <mxGeometry x="590" y="480" width="100" height="70" as="geometry" />
        </mxCell>
        <mxCell id="RoVOGvNV2QU-nWZsqdHu-96" value="" style="endArrow=classic;html=1;rounded=0;exitX=0.5;exitY=1;exitDx=0;exitDy=0;" edge="1" parent="1" source="RoVOGvNV2QU-nWZsqdHu-93">
          <mxGeometry width="50" height="50" relative="1" as="geometry">
            <mxPoint x="640" y="420" as="sourcePoint" />
            <mxPoint x="684" y="380" as="targetPoint" />
          </mxGeometry>
        </mxCell>
        <mxCell id="RoVOGvNV2QU-nWZsqdHu-97" value="Zrestartuj moduł jednostki głównej" style="rounded=1;whiteSpace=wrap;html=1;shadow=0;comic=0;labelBackgroundColor=none;strokeWidth=1;fontFamily=Verdana;fontSize=12;align=center;arcSize=50;" vertex="1" parent="1">
          <mxGeometry x="620" y="380" width="140" height="30" as="geometry" />
        </mxCell>
        <mxCell id="RoVOGvNV2QU-nWZsqdHu-98" value="" style="endArrow=classic;html=1;rounded=0;exitX=0.5;exitY=1;exitDx=0;exitDy=0;entryX=0.431;entryY=-0.136;entryDx=0;entryDy=0;entryPerimeter=0;" edge="1" parent="1" source="RoVOGvNV2QU-nWZsqdHu-97" target="RoVOGvNV2QU-nWZsqdHu-99">
          <mxGeometry width="50" height="50" relative="1" as="geometry">
            <mxPoint x="720" y="460" as="sourcePoint" />
            <mxPoint x="700" y="440" as="targetPoint" />
          </mxGeometry>
        </mxCell>
        <mxCell id="RoVOGvNV2QU-nWZsqdHu-99" value="" style="whiteSpace=wrap;html=1;rounded=0;shadow=0;comic=0;labelBackgroundColor=none;strokeWidth=1;fillColor=#000000;fontFamily=Verdana;fontSize=12;align=center;rotation=0;" vertex="1" parent="1">
          <mxGeometry x="640" y="440" width="120" height="10" as="geometry" />
        </mxCell>
        <mxCell id="RoVOGvNV2QU-nWZsqdHu-100" value="" style="endArrow=classic;html=1;rounded=0;exitX=0.25;exitY=1;exitDx=0;exitDy=0;" edge="1" parent="1" source="RoVOGvNV2QU-nWZsqdHu-99">
          <mxGeometry width="50" height="50" relative="1" as="geometry">
            <mxPoint x="720" y="550" as="sourcePoint" />
            <mxPoint x="720" y="550" as="targetPoint" />
            <Array as="points">
              <mxPoint x="670" y="470" />
              <mxPoint x="720" y="470" />
            </Array>
          </mxGeometry>
        </mxCell>
        <mxCell id="RoVOGvNV2QU-nWZsqdHu-101" value="" style="endArrow=classic;html=1;rounded=0;exitX=0.75;exitY=1;exitDx=0;exitDy=0;" edge="1" parent="1" source="RoVOGvNV2QU-nWZsqdHu-99">
          <mxGeometry width="50" height="50" relative="1" as="geometry">
            <mxPoint x="770" y="540" as="sourcePoint" />
            <mxPoint x="810" y="500" as="targetPoint" />
            <Array as="points">
              <mxPoint x="730" y="470" />
              <mxPoint x="810" y="470" />
            </Array>
          </mxGeometry>
        </mxCell>
        <mxCell id="RoVOGvNV2QU-nWZsqdHu-102" value="Po zresetowaniu nadal jest zwracany błąd" style="rounded=1;whiteSpace=wrap;html=1;shadow=0;comic=0;labelBackgroundColor=none;strokeWidth=1;fontFamily=Verdana;fontSize=12;align=center;arcSize=50;" vertex="1" parent="1">
          <mxGeometry x="650" y="550" width="130" height="60" as="geometry" />
        </mxCell>
        <mxCell id="RoVOGvNV2QU-nWZsqdHu-103" value="Jednostka główna nie zwraca błędu" style="rounded=1;whiteSpace=wrap;html=1;shadow=0;comic=0;labelBackgroundColor=none;strokeWidth=1;fontFamily=Verdana;fontSize=12;align=center;arcSize=50;" vertex="1" parent="1">
          <mxGeometry x="770" y="500" width="130" height="60" as="geometry" />
        </mxCell>
        <mxCell id="RoVOGvNV2QU-nWZsqdHu-104" value="" style="endArrow=classic;html=1;rounded=0;exitX=0;exitY=1;exitDx=0;exitDy=0;" edge="1" parent="1" source="RoVOGvNV2QU-nWZsqdHu-69">
          <mxGeometry width="50" height="50" relative="1" as="geometry">
            <mxPoint x="210" y="450" as="sourcePoint" />
            <mxPoint x="200" y="300" as="targetPoint" />
            <Array as="points">
              <mxPoint x="200" y="250" />
            </Array>
          </mxGeometry>
        </mxCell>
        <mxCell id="RoVOGvNV2QU-nWZsqdHu-105" value="" style="endArrow=classic;html=1;rounded=0;exitX=0.5;exitY=1;exitDx=0;exitDy=0;entryX=0.19;entryY=0.029;entryDx=0;entryDy=0;entryPerimeter=0;" edge="1" parent="1" source="RoVOGvNV2QU-nWZsqdHu-60" target="RoVOGvNV2QU-nWZsqdHu-75">
          <mxGeometry width="50" height="50" relative="1" as="geometry">
            <mxPoint x="340" y="600" as="sourcePoint" />
            <mxPoint x="390" y="550" as="targetPoint" />
            <Array as="points">
              <mxPoint x="225" y="630" />
              <mxPoint x="420" y="630" />
              <mxPoint x="480" y="630" />
            </Array>
          </mxGeometry>
        </mxCell>
        <mxCell id="RoVOGvNV2QU-nWZsqdHu-106" value="" style="endArrow=classic;html=1;rounded=0;exitX=0.5;exitY=1;exitDx=0;exitDy=0;entryX=0.454;entryY=-0.018;entryDx=0;entryDy=0;entryPerimeter=0;" edge="1" parent="1" source="RoVOGvNV2QU-nWZsqdHu-59" target="RoVOGvNV2QU-nWZsqdHu-90">
          <mxGeometry width="50" height="50" relative="1" as="geometry">
            <mxPoint x="170" y="660" as="sourcePoint" />
            <mxPoint x="220" y="610" as="targetPoint" />
            <Array as="points">
              <mxPoint x="100" y="650" />
              <mxPoint x="220" y="650" />
              <mxPoint x="330" y="650" />
            </Array>
          </mxGeometry>
        </mxCell>
        <mxCell id="RoVOGvNV2QU-nWZsqdHu-107" value="" style="endArrow=classic;html=1;rounded=0;exitX=0.5;exitY=1;exitDx=0;exitDy=0;entryX=0.75;entryY=0;entryDx=0;entryDy=0;" edge="1" parent="1" source="RoVOGvNV2QU-nWZsqdHu-95" target="RoVOGvNV2QU-nWZsqdHu-90">
          <mxGeometry width="50" height="50" relative="1" as="geometry">
            <mxPoint x="600" y="750" as="sourcePoint" />
            <mxPoint x="650" y="700" as="targetPoint" />
            <Array as="points">
              <mxPoint x="640" y="660" />
              <mxPoint x="372" y="660" />
            </Array>
          </mxGeometry>
        </mxCell>
        <mxCell id="RoVOGvNV2QU-nWZsqdHu-108" value="" style="endArrow=classic;html=1;rounded=0;exitX=0.75;exitY=1;exitDx=0;exitDy=0;entryX=0.25;entryY=0;entryDx=0;entryDy=0;" edge="1" parent="1" source="RoVOGvNV2QU-nWZsqdHu-86" target="RoVOGvNV2QU-nWZsqdHu-95">
          <mxGeometry width="50" height="50" relative="1" as="geometry">
            <mxPoint x="610" y="480" as="sourcePoint" />
            <mxPoint x="660" y="430" as="targetPoint" />
          </mxGeometry>
        </mxCell>
        <mxCell id="RoVOGvNV2QU-nWZsqdHu-109" value="" style="endArrow=classic;html=1;rounded=0;exitX=0.5;exitY=1;exitDx=0;exitDy=0;entryX=0.5;entryY=0;entryDx=0;entryDy=0;" edge="1" parent="1" source="RoVOGvNV2QU-nWZsqdHu-102" target="RoVOGvNV2QU-nWZsqdHu-75">
          <mxGeometry width="50" height="50" relative="1" as="geometry">
            <mxPoint x="790" y="750" as="sourcePoint" />
            <mxPoint x="840" y="700" as="targetPoint" />
            <Array as="points">
              <mxPoint x="715" y="680" />
              <mxPoint x="520" y="680" />
            </Array>
          </mxGeometry>
        </mxCell>
        <mxCell id="RoVOGvNV2QU-nWZsqdHu-110" value="" style="endArrow=classic;html=1;rounded=0;exitX=0.5;exitY=1;exitDx=0;exitDy=0;entryX=0.25;entryY=0;entryDx=0;entryDy=0;" edge="1" parent="1" source="RoVOGvNV2QU-nWZsqdHu-103" target="RoVOGvNV2QU-nWZsqdHu-90">
          <mxGeometry width="50" height="50" relative="1" as="geometry">
            <mxPoint x="720" y="830" as="sourcePoint" />
            <mxPoint x="300" y="670" as="targetPoint" />
            <Array as="points">
              <mxPoint x="835" y="670" />
              <mxPoint x="301" y="670" />
            </Array>
          </mxGeometry>
        </mxCell>
        <mxCell id="RoVOGvNV2QU-nWZsqdHu-111" value="" style="shape=mxgraph.bpmn.shape;html=1;verticalLabelPosition=bottom;labelBackgroundColor=#ffffff;verticalAlign=top;perimeter=ellipsePerimeter;outline=end;symbol=terminate;rounded=0;shadow=0;comic=0;strokeWidth=1;fontFamily=Verdana;fontSize=12;align=center;" vertex="1" parent="1">
          <mxGeometry x="405.5" y="890" width="40" height="40" as="geometry" />
        </mxCell>
        <mxCell id="RoVOGvNV2QU-nWZsqdHu-112" value="" style="whiteSpace=wrap;html=1;rounded=0;shadow=0;comic=0;labelBackgroundColor=none;strokeWidth=1;fillColor=#000000;fontFamily=Verdana;fontSize=12;align=center;rotation=0;" vertex="1" parent="1">
          <mxGeometry x="352" y="850" width="147" height="10" as="geometry" />
        </mxCell>
        <mxCell id="RoVOGvNV2QU-nWZsqdHu-113" value="" style="endArrow=classic;html=1;rounded=0;exitX=0.5;exitY=1;exitDx=0;exitDy=0;" edge="1" parent="1" source="RoVOGvNV2QU-nWZsqdHu-112">
          <mxGeometry width="50" height="50" relative="1" as="geometry">
            <mxPoint x="378" y="980" as="sourcePoint" />
            <mxPoint x="426" y="890" as="targetPoint" />
          </mxGeometry>
        </mxCell>
        <mxCell id="RoVOGvNV2QU-nWZsqdHu-114" value="" style="endArrow=classic;html=1;rounded=0;exitX=0.59;exitY=1.001;exitDx=0;exitDy=0;exitPerimeter=0;entryX=0.25;entryY=0;entryDx=0;entryDy=0;" edge="1" parent="1" source="RoVOGvNV2QU-nWZsqdHu-90" target="RoVOGvNV2QU-nWZsqdHu-112">
          <mxGeometry width="50" height="50" relative="1" as="geometry">
            <mxPoint x="350" y="990" as="sourcePoint" />
            <mxPoint x="400" y="940" as="targetPoint" />
          </mxGeometry>
        </mxCell>
        <mxCell id="RoVOGvNV2QU-nWZsqdHu-115" value="" style="endArrow=classic;html=1;rounded=0;exitX=0.5;exitY=1;exitDx=0;exitDy=0;entryX=0.851;entryY=0.009;entryDx=0;entryDy=0;entryPerimeter=0;" edge="1" parent="1" source="RoVOGvNV2QU-nWZsqdHu-75" target="RoVOGvNV2QU-nWZsqdHu-112">
          <mxGeometry width="50" height="50" relative="1" as="geometry">
            <mxPoint x="570" y="870" as="sourcePoint" />
            <mxPoint x="620" y="820" as="targetPoint" />
          </mxGeometry>
        </mxCell>
        <mxCell id="RoVOGvNV2QU-nWZsqdHu-116" value="&lt;font style=&quot;font-size: 24px;&quot;&gt;Offline&lt;/font&gt;" style="text;html=1;strokeColor=none;fillColor=none;align=center;verticalAlign=middle;whiteSpace=wrap;rounded=0;" vertex="1" parent="1">
          <mxGeometry x="330" y="20" width="180" height="30" as="geometry" />
        </mxCell>
      </root>
    </mxGraphModel>
  </diagram>
</mxfile>
